<svg version="1.2" xmlns="http://www.w3.org/2000/svg" viewBox="0 0 3200 2000" width="800" height="500"><style>.A{fill:#ebf3fa}.B{fill:#afcdfb}.C{opacity:.6;fill:#fff}.D{fill:#699dee}.E{fill:#dde7fe}.F{opacity:.5;fill:#cde0fb}.G{opacity:.5;fill:#7c9af2}.H{fill:#bdd1f9}.I{fill:#f99746}.J{fill:#ed7d2b}.K{fill:#474fea}.L{fill:#b5453c}.M{fill:#233862}.N{fill:#2b478b}.O{fill:#fcecdb}.P{fill:#548ee2}.Q{fill:#f4d2b8}.R{fill:#568cdb}.S{fill:#a4c4f4}.T{fill:#ed985f}.U{fill:#ffb27d}.V{fill:#f9ddbf}.W{fill:#dd6d22}.X{fill:#fff}.Y{fill:#163560}.Z{fill:#1c468a}.a{fill:#efdece}.b{fill:#91b5f8}.c{fill:#ed975d}.d{fill:#f2ccaa}.e{fill:#c65447}.f{fill:#2c3a64}.g{fill:#2e3552}</style><path class="A" d="m594.8 1191.2c-560.6-960.4 1576.6-1617.3 1792.7-488.7c85.9 448.4 221.7 189 501.1 507.5q269.5 307.2 17.2 630.7l-1102.8 0.3l-241.4 0.1h-79.9l-240.9 0.1l-903.9 4.7c-139.4-492.7 459.7-308.9 257.9-654.7z"/><path class="B" d="m1168.5 1610.3l-4.9-2.7c-5.2-2.8-7.2-9.4-4.3-14.6l22.5-41c2.8-5.2 9.4-7.1 14.6-4.3l7 3.8c1 0.6 1.4 1.9 0.8 2.9c-0.5 1-1.8 1.4-2.8 0.8l-7-3.8c-3.2-1.7-7.2-0.6-8.9 2.6l-22.5 41c-1.7 3.2-0.6 7.2 2.6 8.9l4.9 2.7c3.2 1.8 7.2 0.6 8.9-2.6l14.9-27.2c0.6-1 1.9-1.4 2.9-0.8c1 0.5 1.4 1.8 0.8 2.8l-14.9 27.2c-2.8 5.3-9.4 7.2-14.6 4.3z"/><path class="B" d="m1147.6 1653.4l-8.7-4.8c-8.2-4.5-10.9-15.2-6.1-23.9l33.7-61.7c0.6-1 1.9-1.3 2.9-0.8c1 0.6 1.4 1.9 0.8 2.9l-33.7 61.6c-3.7 6.7-1.7 14.8 4.4 18.2l8.8 4.8c6.1 3.3 14 0.6 17.6-6.1l38.5-70.2c3.6-6.7 1.7-14.8-4.4-18.2c-1.1-0.5-1.4-1.8-0.9-2.8c0.6-1 1.9-1.4 2.9-0.9c8.1 4.5 10.9 15.2 6.1 23.9l-38.5 70.3c-4.7 8.7-15.2 12.1-23.4 7.7z"/><rect class="C" x="868.3" y="383.8" width="1171.2" height="998.4" rx="47.9"></rect><path class="D" d="m2039.6 494.6h-1171.3v-75c0-19.8 16-35.8 35.8-35.8h1099.7c19.8 0 35.8 16 35.8 35.8z"/><circle class="E" cx="928.9" cy="438.5" r="13.2"/><circle class="E" cx="984.5" cy="438.5" r="13.2"/><circle class="E" cx="1040.1" cy="438.5" r="13.2"/><path class="F" d="m1293.1 914.5h-332v-332h332z"/><path class="G" d="m1647.5 607.3h-264.1c-6.9 0-12.5-5.7-12.5-12.6c0-6.9 5.6-12.5 12.5-12.5h264.1c6.9 0 12.6 5.6 12.6 12.5c0 6.9-5.7 12.6-12.6 12.6z"/><path class="G" d="m1963.3 590.4h-264.1c-6.9 0-12.5-5.6-12.5-12.5c0-6.9 5.6-12.6 12.5-12.6h264.1c6.9 0 12.6 5.7 12.6 12.6c0 6.9-5.7 12.5-12.6 12.5z"/><g style="opacity:.3"><path class="H" d="m1699.8 703.9h-320.8c-4.5 0-8.1-3.7-8.1-8.2c0-4.5 3.6-8.1 8.1-8.1h320.8c4.5 0 8.1 3.6 8.1 8.1c0 4.5-3.6 8.2-8.1 8.2z"/><path class="H" d="m1821.7 703.9h-84.7c-4.4 0-8.1-3.7-8.1-8.2c0-4.5 3.7-8.1 8.1-8.1h84.7c4.5 0 8.2 3.6 8.2 8.1c0 4.5-3.7 8.2-8.2 8.2z"/><path class="H" d="m1500 754.3h-121c-4.5 0-8.1-3.6-8.1-8.1c0-4.5 3.6-8.2 8.1-8.2h121c4.5 0 8.2 3.7 8.2 8.2c0 4.5-3.7 8.1-8.2 8.1z"/><path class="H" d="m1696.1 754.3h-165.9c-4.5 0-8.1-3.6-8.1-8.1c0-4.5 3.6-8.2 8.1-8.2h165.9c4.5 0 8.1 3.7 8.1 8.2c0 4.5-3.6 8.1-8.1 8.1z"/><path class="H" d="m1821.7 754.3h-84.7c-4.4 0-8.1-3.6-8.1-8.1c0-4.5 3.7-8.2 8.1-8.2h84.7c4.5 0 8.2 3.7 8.2 8.2c0 4.5-3.7 8.1-8.2 8.1z"/><path class="H" d="m1543.2 797.9h-164.2c-4.5 0-8.1-3.6-8.1-8.1c0-4.5 3.6-8.2 8.1-8.2h164.2c4.5 0 8.2 3.7 8.2 8.2c0 4.5-3.7 8.1-8.2 8.1z"/><path class="H" d="m1856.8 797.9h-268.6c-4.4 0-8.1-3.6-8.1-8.1c0-4.5 3.7-8.2 8.1-8.2h268.6c4.5 0 8.2 3.7 8.2 8.2c0 4.5-3.7 8.1-8.2 8.1z"/></g><g style="opacity:.3"><path class="H" d="m1699.8 864.1h-320.8c-4.5 0-8.1-3.7-8.1-8.1c0-4.5 3.6-8.2 8.1-8.2h320.8c4.5 0 8.1 3.7 8.1 8.2c0 4.4-3.6 8.1-8.1 8.1z"/><path class="H" d="m1821.7 864.1h-84.7c-4.4 0-8.1-3.7-8.1-8.1c0-4.5 3.7-8.2 8.1-8.2h84.7c4.5 0 8.2 3.7 8.2 8.2c0 4.4-3.7 8.1-8.2 8.1z"/><path class="H" d="m1500 914.5h-121c-4.5 0-8.1-3.6-8.1-8.1c0-4.5 3.6-8.1 8.1-8.1h121c4.5 0 8.2 3.6 8.2 8.1c0 4.5-3.7 8.1-8.2 8.1z"/><path class="H" d="m1696.1 914.5h-165.9c-4.5 0-8.1-3.6-8.1-8.1c0-4.5 3.6-8.1 8.1-8.1h165.9c4.5 0 8.1 3.6 8.1 8.1c0 4.5-3.6 8.1-8.1 8.1z"/></g><path fill-rule="evenodd" class="H" d="m1110 632h34.3l92.6 212h-39.1l-21.3-50.8h-99.6l-21.6 50.8h-37.9zm52.9 128.5l-36.4-84.2l-36.1 84.2z"/><path class="I" d="m1146.6 1017.2h-185.5v-35.8h185.5z"/><path class="J" d="m1146.6 1053h-185.5v-35.8h185.5z"/><path class="K" d="m1146.6 1088.8h-185.5v-35.8h185.5z"/><path class="H" d="m1283.3 1001.7h-102.1c-4.3 0-7.7-3.5-7.7-7.8c0-4.2 3.4-7.7 7.7-7.7h102.1c4.2 0 7.7 3.5 7.7 7.7c0 4.3-3.5 7.8-7.7 7.8z"/><path class="H" d="m1248.9 1028.9h-67.7c-4.3 0-7.7-3.4-7.7-7.7c0-4.3 3.4-7.7 7.7-7.7h67.7c4.2 0 7.7 3.4 7.7 7.7c0 4.3-3.5 7.7-7.7 7.7z"/><path class="I" d="m1146.6 1239.7h-185.5v-73.2h185.5z"/><path class="L" d="m1146.6 1273.9h-185.5v-52.3h185.5z"/><path class="K" d="m961.1 1166.5l66.6 55.9l-66.6 51.5z"/><path class="H" d="m1283.3 1186.8h-102.1c-4.3 0-7.7-3.5-7.7-7.7c0-4.3 3.4-7.8 7.7-7.8h102.1c4.2 0 7.7 3.5 7.7 7.8c0 4.2-3.5 7.7-7.7 7.7z"/><path class="H" d="m1248.9 1214h-67.7c-4.3 0-7.7-3.4-7.7-7.7c0-4.3 3.4-7.7 7.7-7.7h67.7c4.2 0 7.7 3.4 7.7 7.7c0 4.3-3.5 7.7-7.7 7.7z"/><path class="M" d="m2051.4 474.2q4.8 57.6-8.3 56.7c-13.1-0.8-39-26.2-91.3-22.1c-52.2 4.2-116.2 15.6-154.8-52.8q-38.7-68.4 49.4-88.1z"/><path class="N" d="m1696.7 274.3l4.9-10.5l255 29.8l252.5 186.4l-5.5 11.7l-263.3-21.7z"/><path class="I" d="m2112.5 681c-5.4 1.5-11.1-1.6-12.6-7.1c-1.6-5.4 1.6-11 7-12.6c5.4-1.5 11 1.6 12.6 7c1.5 5.4-1.6 11.1-7 12.7z"/><path class="I" d="m2110.7 671.2q10.6-0.9 13 95.2q-6.8 3.3-10.2 2.5q-3.4-0.7-5.1-13.7l-0.4 13.6q-11.5 0.4-15.6-2.4q1.6-93.9 18.3-95.2z"/><path class="I" d="m2107.7 673l-3.1-205l-136.2-100.7l4.9-6.7l137.6 101.8l1.4 1l1.9 209.9z"/><path class="O" d="m2291.6 1663.9h-578.5v-219.8h580.4c47 0 85 38 85 84.9v48c0 48-38.9 86.9-86.9 86.9z"/><path class="D" d="m2874.7 1534.5v33.1c0 17.7-4.4 34.2-12.2 48.4c-15.6 28.6-44.5 47.9-77.7 47.9h-1089.5c-7.2 0-13-6.3-13-14v-4.9c0-7.7 5.8-14 13-14h664.1c3.6-4.6 6.7-9.6 9.4-15c6.2-12.5 9.7-26.8 9.7-42v-42c0-7.8-0.9-15.3-2.7-22.4c-3-12.1-8.3-23.2-15.4-32.6h-665.1c-7.2 0-13-6.3-13-14v-4.9c0-7.8 5.8-14 13-14h1094.9c38.6 0 71.2 27.7 81.3 65.5c2.1 7.9 3.2 16.3 3.2 24.9z"/><path class="P" d="m2871.5 1509.6h-495.7c-3-12.1-8.3-23.2-15.4-32.6h-665.1c-7.2 0-13-6.3-13-14v-4.9c0-7.8 5.8-14 13-14h1094.9c38.6 0 71.2 27.7 81.3 65.5z"/><path class="Q" d="m1713.1 1554l80.7 3.7l-80.7 2.2z"/><path class="Q" d="m1713.1 1588.5l191.9 3.7l-191.9 2.2z"/><path class="I" d="m1546.6 1752.3v-11.8c0-42.6 34.5-77.1 77-77.1h572.9v171h-567.9c-45.3 0-82-36.8-82-82.1z"/><path class="O" d="m2089 1754.3v-12.6c0-43.2 35.1-78.3 78.3-78.3h649v171h-647.2c-44.2 0-80.1-35.9-80.1-80.1z"/><rect class="I" x="2034.4" y="1808.8" width="815.7" height="25.6" rx="11.9"></rect><rect class="I" x="2034.4" y="1663.4" width="815.7" height="25.6" rx="11.9"></rect><path class="Q" d="m2816.3 1753.5l-88.1-1.7l88.1-2.9z"/><path class="Q" d="m2816.3 1714.2l-209.7-1.8l209.7-2.8z"/><path class="D" d="m2660.8 1711.9c2.8 0 5.3 2.1 7.3 5c4.3 5.9 6.5 15 6.5 24.3v49.2l-26.4-18.2l-26.6 18.2q0.5-36.3 0-52.4c-0.1-2.4-0.4-4.6-0.9-6.7q-3-12.1-12-19.4z"/><path class="R" d="m2660.8 1711.9q11 2.8 13.1 20.1l-53.2-0.7q-3-12.1-12-19.4z"/><path class="O" d="m2126.1 1444.5h-558.9v-251.1h560.9c49.6 0 89.8 40.2 89.8 89.8v69.5c0 50.7-41.1 91.8-91.8 91.8z"/><path class="B" d="m2204.8 1250.4c-9.3-12-22.7-19.5-37.4-19.5h-617.4c-7.2 0-13-6.9-13-15.6v-6.3c0-8.6 5.8-15.6 13-15.6h1068.7c33.6 0 62.5 23.3 76.2 57c5.4 13.3 8.4 28.2 8.4 44v42.6c0 23-6 44.3-16.3 61.7c-16.3 27.7-43.3 45.9-73.8 45.9h-1063.2c-7.2 0-13-7-13-15.6v-6.4c0-8.6 5.8-15.6 13-15.6h615.5c9.5 0 18.4-3 26.2-8.3c15.7-10.7 26.4-30.7 26.6-53.8v-54.1c-0.1-15.6-5.2-29.7-13.5-40.4z"/><path class="S" d="m1550 1407h615.5c9.5 0 18.4-3 26.2-8.3h495.3c-16.3 27.7-43.3 45.9-73.8 45.9h-1063.2c-7.2 0-13-7-13-15.6v-6.4c0-8.6 5.8-15.6 13-15.6z"/><path class="Q" d="m1567.2 1319l78.9 4.2l-78.9 2.5z"/><path class="Q" d="m1567.2 1261.2l187.7 4.2l-187.7 2.5z"/><path class="I" d="m1752.9 1264.5q-12.3 8-16.5 21.1c-0.7 2.3-1.1 4.7-1.2 7.3q-0.7 17.4 0 56.8l-36.6-19.7l-36.5 19.7v-53.4c0-10.1 3.1-19.9 9-26.3c2.8-3.1 6.2-5.5 10.1-5.5z"/><path class="J" d="m1752.9 1264.5q-12.3 8-16.5 21.1l-73.2 0.8q2.8-18.8 18-21.9z"/><path class="T" d="m818.7 1422.3q114.5 49.9 135.3 49q20.8-0.9 149-39l-3.3 22.1q-98.9 56.8-133.4 60.1c-34.1 3.1-150.5-30.6-161.7-37.7c-11.2-7.1-18.6-47.3 14.1-54.5z"/><path class="M" d="m862.6 1295.7c5 38.8-29.1 72.3-13.4 88.5q15.7 16.2 6.6 33.6q-0.8-11.8-7.5-22.4c15.1 24.8-15.7 81.4-15.9 138.7q-0.1 57.2-157.6 137.8c-2.9-9.9-5.6-14.9-24.1-21.7q-18.4-6.8-23.3-35.9q-5 13.2 6.7 31.4q-28.5-33.1-8.5-66.1c20-33 3.2-39.2 6.3-113.2c3-74 37.5-67.9 51.8-82.2c14.3-14.3 16.3-110.3 54.5-138.1q21-15.4 63.3-7.4c38.9 1.2 57.6 30.4 61.1 57z"/><path class="U" d="m832.6 1476.8c-10.1 7-22.7 12.8-38.5 16.4c-59.4 13.8-82.1-36.4-90.7-70.9c8.1-4.6 15.7-5.6 20.1-6.1c4.3-0.6 8.8-0.9 12.6-1.1c6.6-5.1 16.6-26 18.8-58.4l2.8 0.7l46.8 12.8q-2.2 14.9-3.2 29c-0.9 11-1 21.5 1.1 24q3.7 0.8 5.8 1.4q0.1 0 0.1 0c0.6 1 14.2 23.4 24.3 52.2z"/><path class="T" d="m804.5 1370.2q-2.2 14.9-3.2 29c-26.5-2.7-38.8-27.9-43.6-41.8z"/><path class="U" d="m812.4 1384.2q-62.9-3.5-60.2-42.6c2.8-39.2-3.5-66 36.8-65.4c40.3 0.5 47 16 49.3 29.3c2.3 13.3-9.5 78.6-25.9 78.7z"/><path class="M" d="m846.6 1327.9c-6 0.3-16.5-15.6-18.9-25.8c-1.8-7.5-8.8-15.6-12.4-19.3c-1.6 4.6-17.4 47.5-50 59.8q15.5-11.8 27.5-29c-6.7 6.5-14.3 11.8-22.5 13.3q-26.9 4.9-37.8-3q21.4-14.7 27.6-42.5q24.1-26.3 57.1-5c4.4-3.2 11.9-5.3 20.8 7.2q13.3 18.7 8.6 44.3z"/><path class="V" d="m685.5 1604.8c-5.7-29.1-24.2-145.1-5.7-182.5c6.7-13.4 32.8-14.6 61.4-13.4c8.9 5.7 42.9 27.5 56.9 24.8q0.2-0.1 0.7-0.2c6.6-1.7 9.1-6.3 3.6-10.3c0 0 14.2-1.3 31.8 2q10 1.9 36.8 15.8q-13.5 24.4-33.4 32.8c3.3 30.3-1.7 43.7-33.1 113.7q-26.6 59.2 3.5 112.5q-156.4 125.8-157.3 61.8c-0.6-48.3 42.1-119.9 34.8-157z"/><path class="W" d="m728 1734.1c1.8-23.1 116.8-243.7 185.3-241.4q68.5 2.3 45 80.8c-9.6 24.2-44.6 28-54.4 49.4c-40 88-47 170.6-64.8 197.5q-1.2 2-2.4 3.7c-4.7 7.1-12.4 11.7-20.9 12.7c-133.1 15-89.5-80.2-87.8-102.7z"/><path class="M" d="m1088 1835h-97.4q-3.7-15.6 2.7-26.1c5.7-9.4 3.5-14.7-0.7-22.5c4.4 1.8 10.1 3.5 16.4 3.1c4.9-0.3 10-2.5 14.5-5.1c4.2 4.8 22.2 25.2 27.8 29.2c6.4 4.6 34.8 2.9 36.7 21.4z"/><path class="J" d="m960.5 1515.4c5.9 44 28.8 182.9 69.2 250.7c13.1 21.8-32.8 34.1-33.1 34c-6.1-1.6-16.4-11.4-21.1-15.7c-32.8-29.6-99.5-113.4-99.5-180.5c0-32.8-0.5-95.3 23.3-111.2c14.6-9.8 58.9 5.2 61.2 22.7z"/><path class="I" d="m656.5 1734.1c7.4-21.9 137.6-248.7 206.1-246.4q68.5 2.3 31.2 86.2c-9.5 24.2-36.4 21.3-46.1 42.7c-5.5 12-10.6 24-15.5 35.9c-15.6 38.5-28.2 75.5-38.8 105.6c-10 28.6-18.3 51-25.8 62.3q-6.3 9.6-9.9 14.6c-149.4 23-109.4-76.8-101.2-100.9z"/><path class="N" d="m1016.5 1835h-97.5q-3.7-15.6 2.7-26.1c5.7-9.4 3.5-14.7-0.7-22.5c4.5 1.8 10.2 3.5 16.5 3.1c4.8-0.3 10-2.5 14.5-5.1c4.2 4.8 22.1 25.2 27.7 29.2c6.4 4.6 34.8 2.9 36.8 21.4z"/><path class="J" d="m804.5 1587.5c14.8 10.3 23.6 35.8 27.7 65c-15.6 38.5-28.2 75.5-38.8 105.6q-25-59 11.1-170.6z"/><path class="I" d="m903.6 1512.2c5.9 44.1 14.1 186.1 54.6 253.9c13 21.8-32.9 34.1-33.1 34c-6.2-1.6-16.4-11.4-21.2-15.7c-32.8-29.6-99.4-113.4-99.4-180.5c0-32.8 38.4-92.7 62.2-108.6c14.7-9.8 34.6-0.5 36.9 16.9z"/><path class="X" d="m814.7 1367.9q-12.3-0.7-13.2-7.2q16.7-1.4 22.7 1q-2.5 6.5-9.5 6.2z"/><path class="Y" d="m1077.1 1499.4l-25.8-27.7l43.7-122l20.2 36.5z"/><path class="Z" d="m1115.2 1386.2l-38.1 113.2l-108.1 24.3l40.7-116.1z"/><path class="a" d="m971.2 1517.8l-1.9-3.3l38.5-109.9l1.9 3z"/><path class="O" d="m1007.8 1404.6l102.4-19.9l5 1.5l-105.5 21.4z"/><path class="a" d="m1110.2 1384.7l-30.8 6l14-39.2l21.8 34.7z"/><path class="U" d="m1058.6 1439.1c-5 8.2-28.2 10-38.2 8.2q-9.9-1.8-22.6 4q-108.8 69.9-138.7 69.5c-59-0.7-158.5-36.9-169.8-44c-11.2-7.1-18.5-47.3 14.1-54.5q138.4 51 159.2 49.9q13.4-0.6 125.1-39.9q8.3-12.7 17.4-15.4q0 0-0.1 0q15.9-7.3 20.4-8.6c4.6-1.4 3.7 0 2.3 4.3c-0.7 2.2-3.2 4.4-5.5 6.1c7.6 2.1 15.2 5 18.7 5.7c5.9 1.1 22.7 6.5 17.7 14.7z"/><path class="V" d="m774.7 1447.5q-12.4 39.1-54.9 48.1q-70.2-21.7-35.2-69.5q34.5-25.7 90.1 21.4z"/><path class="U" d="m1099.7 1454.4l0.4-12.4c-3-3.1-6.8-8.8-8.2-14.7c-2.2-8.5-2.2-21.6 7.8-19.6q3.3 0.6 13.3 16.4q0.4 1.6 0.4 3.2q3.2 17.8-13.7 27.1z"/><path class="A" d="m485.1 1326.4l31.9 79.6l-64.8-57.6c-26.1 12.3-60.1 19.2-103.8 19.2c-129.7 0-174.7-52-169.6-136.5c8-131.3 100.1-153.2 184.7-153.2c84.7 0 167.5 43.9 163.5 142.6c-1.8 42.6-13.6 79.6-41.9 105.9z"/><path class="b" d="m2184 1020.9l29.1 72.8l-59.3-52.7c-23.8 11.3-54.9 17.6-94.8 17.6c-118.6 0-159.8-47.5-155.1-124.8c7.3-120 91.5-140 168.9-140c77.4 0 153 40.1 149.4 130.3c-1.6 39-12.4 72.8-38.2 96.8z"/><path class="M" d="m2337 1446.3l-97.2-0.7q-23.3-12.6-41.7-45.1q-14-24.8 138.9 45.8z"/><path class="U" d="m2271.1 1651.3c2.5 2.9 2.8 6.2 1.5 9.6q0 0.1 0 0.1c-2.4 6.4-10.1 13.5-19.1 20.6q-1.7 1.3-3 2.5q-0.4 0.3-0.7 0.6q-0.3 0.2-0.5 0.5c-8.4 7.6-5.3 9.3-20.3 24.8c-17.1 17.5-28.8 17.8-32.2 16.1c-2.8-1.4 3-10.7 9.4-21.2q0.5-0.8 1-1.5q1.3-2.1 2.5-4.3c7.6-12.6 5.7-18.6 4.1-37.5q-1.4-15.3-23.3-85.9l32.6-5.4q9.4 56.1 20.2 64.9c5.7 4.6 12.2 4.7 17.7 8.2q0.6 0.3 1.2 0.7c3.1 2.1 6.3 4.3 8.9 7.2z"/><path class="M" d="m2271.1 1651.3c2.5 2.9 2.8 6.2 1.5 9.6q0 0.1 0 0.1c-2.9 6.4-10.4 13.5-19.1 20.5q-1.7 1.4-3 2.6q-0.4 0.3-0.7 0.6q-0.3 0.2-0.5 0.5c-8.4 7.6-5.3 9.3-20.3 24.8c-17.1 17.5-28.8 17.8-32.2 16.1c-2.8-1.4 3-10.7 9.4-21.2c3.4-1.2 18.8-7.3 30.5-22.1c10.3-13 17.3-29.8 24.3-39.4q0.6 0.3 1.2 0.7c3.1 2.1 6.3 4.3 8.9 7.2z"/><path class="U" d="m2008.4 1629.1c-2.1 10.1-16.4 8.3-32.4 4.3c-16-4.1-12.2 0.6-35-2.1c-22.8-2.7-29.6-11.2-30.3-14.6c-0.6-3 10.7-4 22.8-5.3q2.3-0.3 4.6-0.5c13.6-1.6 23.7-10.4 36.1-17.5q11.8-6.8 29.5-34.6l31.3 2.7q-16.6 24.8-23 35.6c-3.8 6.4-3.7 14.8-3.3 21.3c0.2 3.6 0.5 7.2-0.3 10.7z"/><path class="M" d="m1976 1633.4c-16-4.1-12.2 0.6-35-2.1c-22.8-2.7-29.6-11.2-30.3-14.6c-0.6-3 10.7-4 22.8-5.3l0.1 0.2q13.6 9.8 32.6 10.4c15.4 0.5 31.8-3.8 42.5-3.6c0.2 3.6 0.5 7.2-0.3 10.7c-2.1 10.1-16.4 8.3-32.4 4.3z"/><path class="M" d="m2189.8 1390c6.3 7.5 11.8 20.7 16.8 36.9q19.3 63.5 29.1 173.8q-10.5 6.9-19.6 9.4q-10 2.8-20.3 1.8l-37.5-103l-28.6-78.9q29.8-76.4 60.1-40z"/><path class="N" d="m2160.3 1305.3c19.2-6 73.7 2.3 128.5 13.4l11.6-18.9l118.6-8.4q38.5 87 16.7 142.1c-3.2 8.1-11 11.5-21.7 11.6q0 0 0 0q-70.7 1.2-93.6 1.1c-59-0.4-124.5-41.4-133-43.2c-13.9-2.9-19.7 25-33.8 54.1q-14.1 29.2-131.9 128.7q-17.9 0-25.3-2.8q-8-3.1-10.9-7q131.5-257.1 174.8-270.7z"/><path class="M" d="m2315.5 951.9c8.9-5.2 17.6-5.9 22.8-5.7c3.8 0.2 7.6-0.2 11.3-0.7c45-5.7 71.5 59.8 73 79.6c2.7 36.4 21.9 42.1 48.9 65.1c54.1 46.2 37.7 99.2 7.8 118.8q-17.9 11.7-49.3-0.4c-0.4 0.4-85.7-48.4-127.7-72c-63.2-9.4-12.4-169.7 13.2-184.7z"/><path class="U" d="m2337.7 1094q-1.9-13.1-4.9-26.9l43-15.2l2.5-0.9c4.9 34.5 11.4 39.8 17.4 40.1c0.2 0-9.9 21.6-23.2 27.3c-14 6.1-34.9-1.2-34.7-1.3c2.3-1.5 1.5-12.1-0.1-23.1z"/><path class="c" d="m2375.8 1051.9c-3.6 13.3-14 34.4-38.7 38.7q-2.5-13.9-4.3-23.5z"/><path class="U" d="m2296.7 1008.6c1.2-12.6 6.5-27.5 44.2-30.8c37.8-3.2 33.7 22.4 38.9 58.9q5.2 36.5-53.5 44c-15.5 1-30.8-59.4-29.6-72.1z"/><path class="M" d="m2358.5 975.2c6.5 0.6 12.1 4.7 14.8 10.7q8.9 20.2 23.9 32.9q-9.8 8.1-35.3 5.3q-25.6-2.8-62.9-35.4c6.7-16.2 41.3-15.2 59.5-13.5z"/><path class="M" d="m2322.5 985.9q-12.7 12.1-16.7 21.1c-3.9 8.7-5.2 29.5-2.2 37.8q-19.3-38.3-8.1-56.7q11.9-19.6 27-2.2z"/><path class="V" d="m2337.7 1094q3.8 24.8 53.7-4.3c1.7-1 21.1 28 39.6 63.8c20.5 39.6 14.8 47.9 8.7 72.3q-1.6 6.7-2.7 12.4c-7.3 35.6-1.4 42.9-10 66.1c-2.5 6.8-66.6 12.3-103 9.6c-11.6-0.8-20.4-2.5-23.5-5.2c-13-11.4-11.8 13.5-12.8-105.4q-0.4-58 50-109.3z"/><path class="N" d="m2206.6 1426.9q19.3 63.5 29.1 173.8q-10.5 6.9-19.6 9.4q-10 2.8-20.3 1.8l-37.5-103z"/><path class="V" d="m2318.6 1157.2q-30.5 99.1-42.6 111q-12 11.9-38 7.1q36.2-129.1 42.4-151q6.1-22 57.3-30.3z"/><path class="d" d="m2331.1 1297.7c8-12.1 58.4-25.2 74.8-39.6q16.3-14.4 13.8-69.5l17.3 49.6c-7.3 35.6-1.4 42.9-10 66.1c-2.5 6.8-66.6 12.3-103 9.6c0.7-4.6 3.3-10.4 7.1-16.2z"/><path class="U" d="m2362.6 1306.8q-10.4 2.8-27.3-2.9c-4.1-1.4-12.2-4.3-15.3-3.5c-4.8 1.3-19.5 8.3-17.7 4.2c1.8-4 16-15.5 21.9-18.7q5.8-3.1 41.7 5.2z"/><path class="V" d="m2391.4 1089.7q48.3 3.3 64.8 26.7c23.3 33 69 173.2 42.1 191.6q-30.3 20.8-137.1 4.6q-3.5-16.7 1.5-24.7c5.1-8 85.6-20.5 89.4-24.1c3.7-3.7-45.9-72.8-45.9-84q0.1-11.1-14.8-90.1z"/><path class="U" d="m2322.4 1295.9q-7.6 9.7-10.1 10.8q-2.5 1.2-4.1 0.9l5.1-9.1z"/><path class="U" d="m2315.3 1295.3q-6.8 2.4-9.5 2.6q-2.7 0.1-3.6-1.5l22-10.5z"/><path class="I" d="m2317 1322.4l-173.3-1.2l-51.2-130l173 1.2z"/><path class="J" d="m2141.7 1316.1l228.8 1.7v5l-226.8-1.6z"/><path class="X" d="m2187.9 1256.7c-1.3-4.6 1.4-8.2 5.9-8.2c4.6 0 9.3 3.8 10.6 8.3c1.3 4.6-1.4 8.3-6 8.2c-4.5 0-9.2-3.7-10.5-8.3z"/><path class="e" d="m1790.4 1731.6l-0.1 104.6l-526.5-0.1l0.1-104.6z"/><path class="O" d="m1263.8 1836.1l-77.3-33.1l-45-19.2l46-19.7l76.4-32.6q10.2 25.5 10.3 49.4q0.2 37.6-10.4 55.2z"/><path class="O" d="m1851.6 1766.3v33.1c0 20.4-16.5 36.9-36.9 36.9l-24.4-0.1l0.1-104.6h26.4c19.2 0 34.8 15.5 34.8 34.7z"/><path class="N" d="m1187.5 1764.1c1.9 10.6 3.6 26.8-1 38.9l-45-19.2z"/><path class="I" d="m1469.9 1174.2q-32.4 53.2-55.9 53.2q-27.5 0-37-40.9z"/><path class="N" d="m1692.7 1790.9l-17.7 12.2q-85-90.6-105.5-177.4c-3.6-15.5-5.1-30.7-3.5-45.2q-1.3-4-3.4-10.9q-0.2-0.5-0.3-1c-1-3-2.1-6.6-3.4-10.6c-4.1-13.2-9.8-31.1-16.2-51.5c-14.8-47.1-48.8-153.1-63.3-197.2l104.3-37.7q11.8 27 28.8 100.4c2.7 9.6 5.3 20.2 7.7 31.7c2.8 13.1 5.4 27.4 7.6 42.8c3.6 26.2 6.1 55.6 6.2 87.9c0.1 13.2-0.2 26.8-1 40.8c-0.6 10.4 0.9 24.1 3.8 39.7q13.2 71.4 55.9 176z"/><path class="M" d="m1748.2 1834.5h-84.3q-3.2-13.4 2.4-22.6c4.9-8 3-12.7-0.6-19.4c3.8 1.6 8.7 3 14.2 2.7c4.2-0.2 8.6-2.1 12.5-4.4c3.6 4.1 19.2 21.8 24 25.2c5.5 4 30.1 2.6 31.8 18.5z"/><path class="M" d="m1627.8 1446.5l-65.5 122.1c-1-3-2.1-6.6-3.4-10.6c-4.1-13.2-9.8-31.1-16.2-51.5c-14.8-47.1-48.8-153.1-63.3-197.2l104.3-37.7q11.8 27 28.8 100.4c2.7 9.6 5.3 20.2 7.7 31.7c2.8 13.1 5.4 27.4 7.6 42.8z"/><path class="M" d="m1507.5 1811q16.7 12.7 15.7 23.5h-45.8q-5.5-12 0.3-26.3q17.2-6.7 29.8 2.8z"/><path class="f" d="m1527.6 876c0-2.3 1.2-26.9 38.6-29.1q-18.4 2.6-21.3 10.8q12.3-10.3 22.5-7.3c10.3 2.9 16.7 20.7 16.9 26.6c0.2 5.8-5 24.9-11.4 26.7c-2.4 0.7-5.3 0.6-7.8 0.2c1.7 2.7 3.5 5.6 5.2 8.9c15.7 30.3 2.1 65.9-10.6 62.9q-8.1-1.9-13.1 12.3l-78.5-67.5q27.5-60.6 59.5-44.5z"/><path class="U" d="m1499.3 1035.9q0 0 0-0.1q1.9-0.4 5.1-1.1c1.8-2.2 1.7-11.3 1-20.8q-0.9-12.2-2.8-25l40.5-11.1l2.4-0.7c1.9 28.1 10.5 46.2 16.2 50.6c3.3 0.1 7.2 0.4 10.9 0.9c3.8 0.4 10.4 1.3 17.4 5.3c-7.4 29.8-27.1 73.2-78.4 61.3c-13.7-3.1-24.6-8.1-33.3-14.1c8.7-25 20.5-44.3 21-45.2z"/><path class="T" d="m1543.1 977.8c-4.2 12-14.8 33.8-37.7 36.1q-0.9-12.2-2.8-25z"/><path class="U" d="m1466.9 945.8c-0.4-11.6 2.7-25.9 36.8-33.2c34.1-7.3 33.3 16.5 42.3 49.3q8.9 32.7-43.9 46.3c-13.9 2.7-34.9-50.7-35.2-62.4z"/><path class="f" d="m1463.4 927.2c5.4-12.1 12.2-11.6 16.4-9.6q24.4-23.7 49.3-5.4q10 22.5 30.6 31.3q-7.9 8.5-31.6 8.9c-7.2 0.2-14.5-3-21.2-7.4q13 12.5 28.1 20c-29.7-5-50.3-38.7-52.5-42.3c-2.4 3.7-7 11.7-7.2 18.4c-0.4 9 3.2 26.5-2 27.3q-18-23.1-9.9-41.2z"/><path class="U" d="m1487 1033.1q88.6-21.5 127.1 10.3l-19.2 268.6l-173.4-41.9q4.9-17 38.1-62.2c33.3-45.2 18.8-111.5 27.4-174.8z"/><path class="N" d="m1538.6 1282.1q-0.1 0.9-0.3 2.7q-0.1 1.1-0.2 2.7c-0.8 6.9-2.2 20.3-4 37.7c-4.8 45.5-12.2 118.7-17.3 176.4c-4 45.2-6.5 80.9-5.2 86.7q4.1 17.2 0 223.7q-14.7 7.1-37 0q-39.3-186-33.8-211.9q5.5-25.9-3.7-47.9c-30.4-141.9-27.1-220.6-21.1-258.3c1.8-10.9 3.8-18.4 5.3-22.9q1.2-3.9 2-5.7q67.3-18.1 115.3 16.8z"/><path class="I" d="m1626.1 1120c-4.3 32.3-21.4 71.9-27.5 93.2q10.2 73.9 0.4 94.1c-1.1 2.4-2.4 4-4.1 4.7c-36.2 15.8-176.9 0.5-182.9-44.9c-2.1-16.5 53.6-74.6 56.9-81.6c1.3-2.9 2.8-12.4-3.8-31.9q-9.2 28.5-60.4 20.3c6-10.3 21-81.3 37.7-113.4q12.5-24.2 46.1-27.7q13.9 22.2 47.7 19q33.7-3.1 39.9-23.8q29.9 4 39.2 11.5c1.6 1.3 16.4 38.2 10.8 80.5z"/><path class="J" d="m1598.6 1213.2q10.2 73.9 0.4 94.1c-26.3-13.2-47.1-48.9-42.3-88.8c3.6-29.4 8.8-36.1 24.6-53c11.6-12.4 38.3-13.1 36.2-7.2c-6.2 17.6-15.7 43.6-18.9 54.9z"/><path class="Z" d="m1488.6 1125.8l60.4 96.8h-102.7l-57.5-94.7z"/><path class="a" d="m1488.6 1125.8l1.2-3.1l57.1 91.6l-1 3.4z"/><path class="O" d="m1488.6 1125.8l-99.8 2.1l4.2-2.4l96.8-2.8z"/><path class="Y" d="m1446.3 1222.6l-48.5-24.8l-63.3-99.3l54.3 29.4z"/><path class="U" d="m1676 1195.7c-5.8 2.7-20.7 20.2-26 22q-24 8-125.9-13.3l3.1-17.8q100.1 2.6 111.1-0.3c2-0.6 12.9-17.5 17-19.9z"/><path class="U" d="m1524.1 1204.4q-11.7-1.4-19.3 2.7c-7.6 4-26.7 8.6-32.8 3.3c-6.1-5.3 6-14 10.4-16.5c4.5-2.4 16.5-12.7 24.6-14.9q8.2-2.3 20.2 7.6z"/><path class="U" d="m1500.2 1186.4c-0.4-1.1-8-2.2-10.2-5.4c-2.2-3.1-3.3-3.9 0.7-4q4-0.1 18.6 1.6q-8.8 8.9-9.1 7.8z"/><path class="I" d="m1576.1 1028q43.5 5.2 55.4 23.8c15.2 23.6 50.9 117.5 49.8 141.2q-26.2 44.4-115.7 37.3q-9.3-32.9 9.5-43.8q46-8.2 51.3-12.8l-37.5-68.2z"/><path class="U" d="m1388.3 1192.4c-4.9 3.8-12.4-1-12.2-12.7q1.2-14.5 2-18c0.7-3.4 3.7 1.2 3.9 3.8c0.1 0.7 0.2 1.5 0.3 2.4c1.1-1.5 2.1-2.8 3.1-3.6c4-3.1 15.9-6.5 17.3-1.1c1.3 5.5-9.6 25.4-14.4 29.2z"/><rect class="g" x="256.6" y="1834.5" width="2745.5" height="9.4" rx="3.5"></rect></svg>