<svg xmlns="http://www.w3.org/2000/svg" version="1.1" xmlns:xlink="http://www.w3.org/1999/xlink" xmlns:svgjs="http://svgjs.com/svgjs" width="512" height="512" x="0" y="0" viewBox="0 0 512 512" style="enable-background:new 0 0 512 512" xml:space="preserve" class=""><g transform="matrix(0.7,0,0,0.6999999999999998,76.80000457763674,76.79985036849976)"><g xmlns="http://www.w3.org/2000/svg"><path d="m392.927 154.887c0-9.649-7.851-17.5-17.5-17.5h-199.328c-9.649 0-17.5 7.851-17.5 17.5v81.587c0 9.649 7.851 17.5 17.5 17.5h199.328c9.649 0 17.5-7.851 17.5-17.5zm-15 81.587c0 1.378-1.122 2.5-2.5 2.5h-199.328c-1.378 0-2.5-1.122-2.5-2.5v-81.587c0-1.378 1.122-2.5 2.5-2.5h199.328c1.378 0 2.5 1.122 2.5 2.5z" fill="#b0bbcb" data-original="#000000" class=""></path><path d="m385.427 286.431h-219.328c-4.142 0-7.5 3.358-7.5 7.5s3.358 7.5 7.5 7.5h219.328c4.142 0 7.5-3.358 7.5-7.5s-3.358-7.5-7.5-7.5z" fill="#b0bbcb" data-original="#000000" class=""></path><path d="m385.427 333.888h-219.328c-4.142 0-7.5 3.358-7.5 7.5s3.358 7.5 7.5 7.5h219.328c4.142 0 7.5-3.358 7.5-7.5s-3.358-7.5-7.5-7.5z" fill="#b0bbcb" data-original="#000000" class=""></path><path d="m385.427 381.345h-219.328c-4.142 0-7.5 3.358-7.5 7.5s3.358 7.5 7.5 7.5h219.328c4.142 0 7.5-3.358 7.5-7.5s-3.358-7.5-7.5-7.5z" fill="#b0bbcb" data-original="#000000" class=""></path><path d="m385.427 452.5h-218.368c-4.142 0-7.5 3.358-7.5 7.5s3.358 7.5 7.5 7.5h218.368c4.142 0 7.5-3.358 7.5-7.5s-3.358-7.5-7.5-7.5z" fill="#b0bbcb" data-original="#000000" class=""></path><path d="m470.166 386.182c4.142 0 7.5-3.358 7.5-7.5v-267.81c0-8.681-3.381-16.842-9.52-22.981l-78.371-78.372c-6.138-6.139-14.3-9.519-22.981-9.519h-260.434c-17.92 0-32.5 14.58-32.5 32.5v59.874c-1.518 1.14-2.787 2.631-3.677 4.408l-33.467 66.816c-1.559 3.112-2.382 6.596-2.382 10.076v193.946 36.999c0 9.649 7.851 17.5 17.5 17.5h22.026v57.38c0 17.92 14.58 32.5 32.5 32.5h338.806c17.92 0 32.5-14.58 32.5-32.5v-68.132c0-4.142-3.358-7.5-7.5-7.5s-7.5 3.358-7.5 7.5v68.133c0 9.649-7.851 17.5-17.5 17.5h-338.806c-9.649 0-17.5-7.851-17.5-17.5v-57.38h22.025c9.649 0 17.5-7.851 17.5-17.5v-36.999-42.857c0-4.142-3.358-7.5-7.5-7.5s-7.5 3.358-7.5 7.5v35.357h-24.525v-178.947h24.525v110.903c0 4.142 3.358 7.5 7.5 7.5s7.5-3.358 7.5-7.5v-118.403c0-3.48-.824-6.965-2.382-10.077l-33.466-66.815v-.001c-.89-1.777-2.159-3.268-3.676-4.407v-59.874c0-9.649 7.851-17.5 17.5-17.5h252.934v70.872c0 17.92 14.58 32.5 32.5 32.5h70.872v260.31c-.001 4.142 3.357 7.5 7.499 7.5zm-378.756-258.155h-20.1l10.05-20.065zm21.975 276.593c0 1.378-1.122 2.5-2.5 2.5h-59.051c-1.378 0-2.5-1.122-2.5-2.5v-29.499h64.051zm-39.525-44.499h-24.526v-178.947h24.526zm-21.657-193.947 11.594-23.147h35.127l11.594 23.147zm322.091-80.302v-69.17c1.784.848 3.437 1.986 4.875 3.424l78.372 78.372c1.438 1.438 2.576 3.091 3.424 4.874h-69.17c-9.65 0-17.501-7.851-17.501-17.5z" fill="#b0bbcb" data-original="#000000" class=""></path><path d="m176.099 50.801h62.478c4.142 0 7.5-3.358 7.5-7.5s-3.358-7.5-7.5-7.5h-62.478c-9.649 0-17.5 7.851-17.5 17.5v47.902c0 9.649 7.851 17.5 17.5 17.5h137.642c9.649 0 17.5-7.851 17.5-17.5v-47.902c0-9.649-7.851-17.5-17.5-17.5h-42.477c-4.142 0-7.5 3.358-7.5 7.5s3.358 7.5 7.5 7.5h42.477c1.378 0 2.5 1.122 2.5 2.5v47.902c0 1.378-1.122 2.5-2.5 2.5h-137.642c-1.378 0-2.5-1.122-2.5-2.5v-47.902c0-1.379 1.122-2.5 2.5-2.5z" fill="#b0bbcb" data-original="#000000" class=""></path></g></g></svg>