<svg xmlns="http://www.w3.org/2000/svg" version="1.1" xmlns:xlink="http://www.w3.org/1999/xlink" xmlns:svgjs="http://svgjs.com/svgjs" width="512" height="512" x="0" y="0" viewBox="0 0 512 512" style="enable-background:new 0 0 512 512" xml:space="preserve" class=""><g><title xmlns="http://www.w3.org/2000/svg">newspaper</title><path xmlns="http://www.w3.org/2000/svg" d="M409.826,156.661c-40.229-25.047-60.465-45.814-60.661-46.019a5.574,5.574,0,0,0-6.555-1.1c-70.88,36.236-139.643,47.762-184.845,51.049-49.089,3.568-81.782-1.527-82.106-1.578a5.576,5.576,0,0,0-5.942,7.847c24.479,52.905,84.079,88.326,87.535,90.344a566.953,566.953,0,0,1,66.454,48.659c23.233,19.834,34.262,39.113,34.7,60.675A5.576,5.576,0,0,0,263.982,372h.117a5.575,5.575,0,0,0,5.46-5.689c-.505-24.632-13.136-47.178-38.614-68.927A578.339,578.339,0,0,0,163.07,247.7c-.045-.029-.091-.057-.139-.084-.558-.326-52.768-31.065-78.394-76.3a444.935,444.935,0,0,0,73.665.432c45.56-3.28,114.485-14.725,185.9-50.453,7.074,6.724,26.762,24.246,59.835,44.837,16.351,10.181,39.383,26.968,56.254,49.12a61.461,61.461,0,0,1-20.319,91.614,282.153,282.153,0,0,1-27.993,12.662c-.113.043-.224.091-.334.143-1.256.591-126.01,59.174-161.107,69.09-.109.031-.2.086-.311.123s-.206.051-.307.092c-11.682,4.841-22.543,3.676-32.278-3.46a39.491,39.491,0,0,1-11.458-13.592c-.471-.887-.915-1.7-1.45-2.673-.556-1.014-1.215-2.216-2.12-3.9a315.159,315.159,0,0,0-64.147-83.009c-17.454-16.087-35.369-30.545-49.636-41.477-.047-.035-.091-.073-.139-.106-6.211-4.757-11.736-8.852-16.209-12.1l15.159-1.624a5.576,5.576,0,0,0-1.187-11.088l-29.806,3.193a5.576,5.576,0,0,0-2.537,10.158c.162.11,7.008,4.777,17.6,12.626-7.8,1.252-17.326,2.744-27.03,4.171a5.577,5.577,0,0,0-1.638,10.525c.236.116,24.272,12.077,80.842,54.737a5.575,5.575,0,0,0,6.714-8.9c-33.466-25.237-55.59-39.828-68.463-47.726,8.728-1.358,16.482-2.618,21.872-3.506,13.7,10.564,30.511,24.216,46.9,39.324a303.278,303.278,0,0,1,57.535,72.288C122.506,315.5,37.249,270.28,36.286,269.771a5.575,5.575,0,1,0-5.21,9.858c1.075.569,108.071,57.321,174.032,109.787a47.123,47.123,0,0,0,5.835,5.087,42.334,42.334,0,0,0,25.155,8.564,46.574,46.574,0,0,0,17.624-3.654c35.96-10.264,155.27-66.228,162.4-69.579a292.976,292.976,0,0,0,28.938-13.1,72.613,72.613,0,0,0,24-108.24C451.163,184.993,426.97,167.336,409.826,156.661Z" fill="#b0bbcb" data-original="#000000" class=""></path><path xmlns="http://www.w3.org/2000/svg" d="M178.951,196.393a5.579,5.579,0,0,0-6.662-4.217c-9.651,2.168-25.523,2.751-25.682,2.758a5.575,5.575,0,0,0,.193,11.147c.067,0,.134,0,.2,0,.691-.023,17.063-.624,27.733-3.022A5.575,5.575,0,0,0,178.951,196.393Z" fill="#b0bbcb" data-original="#000000" class=""></path><path xmlns="http://www.w3.org/2000/svg" d="M179.392,221.886a5.643,5.643,0,0,0,1.006-.091l7.769-1.416a5.576,5.576,0,0,0-2-10.971l-7.768,1.415a5.577,5.577,0,0,0,.992,11.063Z" fill="#b0bbcb" data-original="#000000" class=""></path><path xmlns="http://www.w3.org/2000/svg" d="M183.277,244.116a5.587,5.587,0,0,0,.832-.062,156.654,156.654,0,0,0,26.683-6.693,5.576,5.576,0,0,0-3.814-10.479,147.69,147.69,0,0,1-24.522,6.143,5.577,5.577,0,0,0,.821,11.091Z" fill="#b0bbcb" data-original="#000000" class=""></path><path xmlns="http://www.w3.org/2000/svg" d="M360.726,204.321a5.557,5.557,0,0,0,1.867-.324l3.173-1.13a5.576,5.576,0,1,0-3.746-10.5l-3.162,1.127a5.576,5.576,0,0,0,1.868,10.83Z" fill="#b0bbcb" data-original="#000000" class=""></path><path xmlns="http://www.w3.org/2000/svg" d="M249.85,239.155a5.573,5.573,0,0,0,5.819,1.466c.423-.141,42.79-14.255,82.623-28.093a5.576,5.576,0,1,0-3.658-10.534c-33.285,11.563-68.345,23.32-79.137,26.928-11.446-11.856-26.948-26.141-36.422-34.708C274,183.155,326.662,162.825,340.08,157.454c19.216,16.923,44.332,34.823,45.439,35.609a5.575,5.575,0,0,0,6.463-9.087c-.279-.2-28.059-20-47.049-37.133a5.576,5.576,0,0,0-5.888-1c-.663.278-67.125,27.893-133.071,39.5a5.576,5.576,0,0,0-2.722,9.672C203.549,195.275,233.139,221.423,249.85,239.155Z" fill="#b0bbcb" data-original="#000000" class=""></path><path xmlns="http://www.w3.org/2000/svg" d="M406.06,285.82a5.576,5.576,0,0,0,7.593,4.544l17.424-6.9a33.874,33.874,0,0,0,15.684-50.346c-13.7-20.388-34.269-30.918-35.138-31.357a5.571,5.571,0,0,0-4.719-.141l-39.032,16.837a5.575,5.575,0,0,0-.5,9.992C401.081,247.19,406.015,285.447,406.06,285.82Zm2.744-72.88c5.309,3.108,19.074,12.07,28.7,26.394a22.72,22.72,0,0,1-10.538,33.757l-11.151,4.42c-2.805-11.86-11.084-36.086-33.928-52.961Z" fill="#b0bbcb" data-original="#000000" class=""></path><path xmlns="http://www.w3.org/2000/svg" d="M338.724,230.079l-72.842,25.979a5.576,5.576,0,1,0,3.746,10.5l72.842-25.979a5.576,5.576,0,0,0-3.746-10.5Z" fill="#b0bbcb" data-original="#000000" class=""></path><path xmlns="http://www.w3.org/2000/svg" d="M298.942,282.022a5.569,5.569,0,0,0,7.155,3.314l56.549-20.754a5.575,5.575,0,1,0-3.841-10.467l-56.55,20.753A5.573,5.573,0,0,0,298.942,282.022Z" fill="#b0bbcb" data-original="#000000" class=""></path><path xmlns="http://www.w3.org/2000/svg" d="M266.4,299.541a5.551,5.551,0,0,0,1.921-.343l7.992-2.933a5.575,5.575,0,0,0-3.841-10.468l-7.992,2.934a5.576,5.576,0,0,0,1.92,10.81Z" fill="#b0bbcb" data-original="#000000" class=""></path><path xmlns="http://www.w3.org/2000/svg" d="M288.7,328.708a5.546,5.546,0,0,0,2.109-.416l83.762-34.247a5.575,5.575,0,0,0-4.22-10.321l-83.762,34.247a5.576,5.576,0,0,0,2.111,10.737Z" fill="#b0bbcb" data-original="#000000" class=""></path></g></svg>